<svg version="1.1" id="Layer_1" xmlns="http://www.w3.org/2000/svg" xmlns:xlink="http://www.w3.org/1999/xlink" x="0px" y="0px"
	 width="100%" viewBox="0 0 353 338" enable-background="new 0 0 353 338" xml:space="preserve">
<path fill="#FEFFFE" opacity="1.000000" stroke="none" 
	d="
M1.000000,126.000000 
	C1.000000,84.015015 1.000000,42.530025 1.000000,1.022518 
	C118.609085,1.022518 236.218185,1.022518 353.913635,1.022518 
	C353.913635,113.568268 353.913635,226.136627 353.913635,338.852478 
	C236.333466,338.852478 118.666756,338.852478 1.000000,338.852478 
	C1.000000,268.115265 1.000000,197.307632 1.000000,126.000000 
M184.355331,51.001640 
	C184.239105,51.337601 184.122864,51.673561 183.803574,52.167061 
	C183.803574,52.167061 183.882095,52.411781 183.350571,52.793530 
	C183.224426,53.200230 183.098267,53.606934 182.800293,54.159630 
	C182.800293,54.159630 182.868088,54.374668 182.345093,54.767265 
	C182.236389,55.178978 182.127701,55.590691 181.788910,56.183144 
	C181.788910,56.183144 181.881271,56.460770 181.407120,56.835625 
	C181.316849,57.215683 181.226562,57.595741 180.829346,58.399540 
	C180.203995,58.931648 179.578659,59.463757 178.992798,59.269375 
	C178.832092,58.817066 178.671371,58.364758 178.595444,57.467762 
	C178.539474,57.146992 178.369308,56.907272 178.151474,56.023849 
	C174.564240,46.735088 167.912262,41.031357 157.713043,38.171783 
	C155.575806,37.964951 153.438980,37.584160 151.301285,37.579292 
	C136.539017,37.545666 121.776573,37.591194 107.014191,37.609409 
	C103.740685,37.613445 100.467163,37.610001 96.798706,37.610001 
	C96.920013,40.102406 97.014572,42.045181 96.946785,44.833263 
	C97.265732,47.097713 97.603897,49.359653 97.900543,51.627022 
	C100.039528,67.976631 116.515785,83.112267 133.928345,84.113388 
	C143.638031,84.119507 153.347702,84.125626 163.656006,84.451317 
	C164.765060,84.646660 165.874115,84.842003 167.389267,85.547722 
	C168.880402,86.843079 170.371536,88.138435 171.754593,89.747002 
	C171.754593,89.747002 171.976456,89.993080 171.886658,90.928024 
	C171.966400,96.071846 171.731323,101.246956 172.238281,106.348320 
	C172.567764,109.663597 173.978531,112.871414 174.949142,116.051086 
	C174.949142,116.051086 174.860931,116.052582 174.970673,116.687096 
	C175.267181,116.983757 175.563675,117.280426 175.946915,118.056747 
	C176.288757,118.376213 176.630585,118.695679 177.098480,119.528854 
	C177.392456,119.701469 177.686447,119.874092 178.139465,120.513092 
	C178.567154,120.722466 178.994843,120.931839 179.774887,121.683372 
	C180.165527,121.846634 180.556183,122.009895 181.386215,122.776405 
	C185.590103,123.540085 189.793976,124.303772 193.907730,125.782257 
	C191.605087,127.541512 189.302444,129.300766 186.186630,131.266098 
	C180.791946,131.382416 175.397263,131.498734 169.098160,131.356735 
	C155.277817,131.478912 141.385834,130.773529 127.657829,131.962128 
	C114.612762,133.091599 104.521477,139.821304 99.508682,153.439301 
	C99.311806,154.262787 99.114929,155.086273 98.570557,156.193756 
	C98.493401,156.614655 98.416245,157.035553 98.071579,157.984772 
	C97.997307,158.965424 97.923035,159.946091 97.461510,161.559601 
	C97.399940,163.047607 97.338379,164.535599 97.099205,166.494522 
	C97.147964,166.655045 97.196716,166.815567 97.061134,167.766403 
	C97.109184,168.842529 97.157234,169.918671 97.008995,171.902191 
	C97.074791,176.357895 97.140587,180.813583 97.041519,186.031693 
	C97.103767,187.070175 97.166008,188.108658 97.065254,189.974380 
	C97.123894,191.672577 97.182541,193.370789 97.063042,195.574493 
	C97.118889,195.922760 97.174736,196.271042 97.056313,197.462387 
	C97.111122,203.657181 97.165932,209.851959 97.028900,216.940018 
	C97.084976,220.294220 97.141052,223.648422 97.019806,227.740677 
	C97.076248,228.492798 97.132690,229.244934 96.994942,230.783936 
	C97.055489,231.856888 97.116043,232.929825 96.996712,234.740356 
	C97.053001,235.492538 97.109291,236.244720 96.970856,237.856140 
	C97.032158,239.904541 97.093460,241.952942 96.976707,244.821640 
	C97.035492,246.214005 97.094269,247.606369 96.958191,249.785004 
	C97.019730,250.857239 97.081268,251.929459 96.993240,253.499863 
	C97.042793,253.666000 97.092354,253.832138 96.950394,254.785599 
	C97.015480,255.857941 97.080566,256.930267 96.970093,258.877197 
	C97.038048,261.249695 97.106003,263.622223 97.014259,266.538391 
	C97.156555,267.074493 97.298851,267.610596 97.488388,268.936462 
	C98.868248,275.016235 102.131760,279.586517 108.511597,282.660675 
	C115.588593,283.149261 122.665588,283.637878 129.837921,284.960754 
	C129.837921,287.568726 129.837921,290.176697 129.837921,293.258606 
	C133.267929,291.471710 136.960831,290.216339 139.812286,287.917358 
	C145.066208,283.681366 149.007156,285.983063 153.308853,289.308136 
	C155.209595,290.777344 157.652771,291.544769 160.942917,293.171204 
	C160.942917,289.687134 160.946442,287.725769 160.942337,285.764435 
	C160.917725,274.011810 160.829971,262.258514 160.952087,250.507431 
	C160.965637,249.204361 162.172958,247.913681 163.782425,246.687973 
	C177.248871,246.686111 190.715302,246.688339 204.181747,246.681305 
	C219.809158,246.673157 235.438889,246.813522 251.063034,246.581177 
	C259.477539,246.456055 263.358948,242.960205 263.460175,234.959747 
	C263.691437,216.682709 263.433533,198.399460 263.645203,179.692093 
	C263.498291,179.403366 263.351379,179.114639 263.127441,178.109528 
	C261.476624,174.551498 259.561798,171.300232 254.156143,170.936447 
	C252.136261,170.885468 250.116364,170.834488 247.842697,170.193939 
	C247.229279,170.147629 246.615845,170.101303 245.082626,169.858414 
	C237.386261,169.914642 229.689911,169.970856 221.070877,169.853729 
	C196.092575,169.744919 171.114258,169.636124 145.611313,169.017639 
	C144.136612,165.563156 144.767944,163.300156 149.902588,163.261581 
	C160.352036,163.254669 170.801666,163.283157 181.250900,163.232773 
	C198.160767,163.151230 215.070374,163.017868 232.773987,163.036819 
	C245.668320,161.212555 254.501373,153.955994 260.773224,141.984039 
	C271.075745,116.826317 251.730408,91.934700 227.067642,93.019928 
	C216.431396,93.487953 205.754532,93.066025 195.096512,92.993500 
	C188.565735,92.949066 187.507690,91.246162 190.725220,84.926567 
	C191.160965,84.743683 191.596710,84.560806 192.938370,84.610146 
	C202.386551,84.601555 211.836517,84.689751 221.281631,84.515213 
	C223.595154,84.472450 225.892822,83.570320 229.052078,83.084862 
	C233.781525,81.733231 239.139465,81.364433 243.109741,78.825600 
	C251.403809,73.521919 258.804230,66.944672 261.677856,55.997372 
	C261.850800,54.972694 262.023712,53.948013 262.260956,52.754055 
	C262.260956,52.754055 262.120819,52.639366 262.710175,52.011795 
	C263.128082,47.317825 263.545990,42.623852 263.966614,37.899143 
	C243.005051,37.899143 222.816391,37.790592 202.631973,38.033516 
	C200.045334,38.064651 197.480698,39.924213 194.971924,40.983345 
	C194.971924,40.983345 194.965622,40.902752 194.383743,40.944065 
	C193.949783,41.305138 193.515839,41.666210 192.586166,42.123016 
	C192.378082,42.373482 192.169998,42.623947 191.352493,43.022655 
	C190.318924,44.018028 189.285355,45.013401 187.933121,46.108589 
	C187.933121,46.108589 187.862122,46.434868 187.275162,46.808651 
	C186.435699,48.161949 185.596222,49.515247 184.885101,50.889660 
	C184.885101,50.889660 184.856506,50.762764 184.355331,51.001640 
M171.361893,275.334595 
	C171.326935,276.237732 171.291977,277.140839 171.114807,278.694305 
	C171.182892,279.128143 171.250977,279.562012 171.163437,280.495209 
	C171.201736,280.665222 171.240036,280.835205 171.074753,281.684387 
	C171.392654,282.434357 171.710541,283.184326 172.940109,284.152618 
	C200.503448,284.128876 228.066772,284.108124 255.630096,284.074005 
	C257.287750,284.071960 259.304016,284.526428 260.509888,283.758240 
	C261.942230,282.845856 263.380524,280.884827 263.483856,279.291809 
	C263.561157,278.100098 261.744354,276.370697 260.367737,275.627411 
	C259.213074,275.003967 257.475616,275.459808 255.266403,275.211975 
	C254.512177,275.275696 253.757950,275.339417 252.216843,275.190308 
	C251.136032,275.236389 250.055222,275.282471 248.067352,275.094208 
	C223.379471,275.116943 198.691574,275.139679 173.351059,275.014496 
	C172.914917,275.078796 172.478775,275.143127 171.361893,275.334595 
z"/>
<path fill="#139143" opacity="1.000000" stroke="none" 
	d="
M221.993546,170.027100 
	C229.689911,169.970856 237.386261,169.914642 245.581299,170.257568 
	C246.752136,170.698990 247.424301,170.741257 248.096481,170.783508 
	C250.116364,170.834488 252.136261,170.885468 254.619751,171.370987 
	C255.404739,172.376770 255.636826,173.026871 256.061035,173.507370 
	C261.868805,180.086319 261.795044,180.733368 254.910583,185.870773 
	C254.386398,186.261932 254.320160,187.266785 254.042557,187.982483 
	C255.459976,188.773438 256.619415,189.420425 258.407654,190.418320 
	C252.974670,193.908920 252.927948,198.804153 252.919922,203.959320 
	C252.909103,210.907196 252.375687,217.856613 251.984085,224.800705 
	C251.731384,229.281631 247.942993,233.906357 243.668442,234.886749 
	C235.969559,236.652496 228.317688,238.981140 220.510956,239.828018 
	C210.812622,240.880112 200.976685,240.657455 191.200790,241.002747 
	C182.088989,241.324585 172.954315,241.393631 163.881058,242.172226 
	C161.168076,242.405045 158.627716,244.649612 155.630310,246.024597 
	C154.492355,246.037994 153.732346,245.999298 152.678406,245.671066 
	C147.257141,245.253754 142.129791,245.125961 136.939636,244.640350 
	C129.918091,241.188370 122.959351,238.094177 115.635239,234.995941 
	C113.846474,233.661255 112.423080,232.330612 110.957855,230.623291 
	C109.278633,225.040665 107.364014,219.902969 106.061882,214.614456 
	C103.393593,203.777390 105.211891,193.305252 109.053246,182.989136 
	C110.409981,179.345596 111.367653,176.429413 116.376534,176.738998 
	C119.121017,176.908646 122.414589,175.612167 124.706779,173.942184 
	C128.139038,171.441528 129.965683,172.676971 132.730698,175.000015 
	C139.400848,180.604065 146.452347,178.686554 149.471649,171.008545 
	C172.062378,171.004105 194.184906,171.026367 216.307159,170.958969 
	C218.203537,170.953201 220.098129,170.351807 221.993546,170.027100 
z"/>
<path fill="#118E3F" opacity="1.000000" stroke="none" 
	d="
M190.027557,85.072258 
	C187.507690,91.246162 188.565735,92.949066 195.096512,92.993500 
	C205.754532,93.066025 216.431396,93.487953 227.067642,93.019928 
	C251.730408,91.934700 271.075745,116.826317 260.343872,141.875305 
	C259.286346,140.176483 258.658234,138.586380 258.159363,137.323502 
	C252.733185,142.052185 247.825775,146.847000 242.384750,150.930832 
	C236.439499,155.393143 229.313354,156.378326 221.944016,155.653412 
	C215.461990,151.450226 209.035950,147.593002 202.024521,143.384399 
	C204.898956,142.855759 207.435944,142.818024 209.588242,141.889069 
	C212.544800,140.613037 215.209976,138.661896 218.388641,136.999542 
	C223.354446,136.326126 229.481110,131.366791 229.716934,128.143814 
	C230.018982,124.015663 226.023087,119.243271 220.445511,117.779938 
	C216.805008,116.824806 212.974411,116.608971 209.240570,115.991753 
	C201.277298,114.675392 193.283890,113.498184 185.379745,111.886696 
	C181.794342,111.155701 179.051727,108.910454 178.784653,104.765182 
	C178.492325,100.227859 178.471893,95.656082 177.864349,91.162682 
	C177.529404,88.685638 176.935699,85.467796 175.237350,84.096207 
	C170.122665,79.965599 164.791977,75.893677 157.338104,76.905891 
	C153.417282,77.438332 149.296600,77.461639 145.387985,76.886665 
	C140.071533,76.104599 134.772018,74.839844 129.654907,73.192833 
	C125.918015,71.990067 122.533615,69.731461 118.909622,68.130135 
	C112.275383,65.198677 108.615570,57.627052 108.059433,51.982533 
	C107.778809,49.134331 108.862045,47.919353 112.267540,48.439339 
	C115.943893,49.000690 119.800720,48.449726 123.574715,48.288231 
	C132.673996,47.898849 141.782852,46.972076 150.864594,47.197838 
	C157.062164,47.351902 163.061905,48.768761 167.884109,53.962219 
	C170.595261,56.882076 175.201065,58.042686 178.953308,59.995861 
	C179.578659,59.463757 180.203995,58.931648 181.199570,57.990459 
	C181.673630,57.207844 181.777451,56.834309 181.881271,56.460770 
	C181.881271,56.460770 181.788910,56.183144 182.149567,55.887230 
	C182.629532,55.185764 182.748810,54.780216 182.868088,54.374668 
	C182.868088,54.374668 182.800293,54.159630 183.140121,53.889313 
	C183.613998,53.216591 183.748047,52.814190 183.882111,52.411781 
	C183.882095,52.411781 183.803574,52.167061 184.130035,51.946133 
	C184.589844,51.404392 184.723175,51.083580 184.856506,50.762764 
	C184.856506,50.762764 184.885101,50.889660 185.120209,50.828766 
	C185.904739,50.514755 186.454178,50.261642 187.002960,50.428787 
	C187.422638,52.494919 187.842957,54.140781 188.263290,55.786644 
	C189.815445,55.053741 191.334000,54.235447 192.927658,53.607956 
	C195.314133,52.668301 197.717468,51.266304 200.177322,51.118088 
	C206.223206,50.753799 212.308167,51.107780 218.372406,50.962906 
	C228.065491,50.731335 237.752792,50.256691 247.445908,50.027988 
	C253.016647,49.896549 254.915070,53.195557 252.168686,58.174858 
	C251.221115,59.892864 249.997711,61.576935 248.541153,62.872829 
	C244.847061,66.159424 241.217484,69.646805 237.056198,72.242912 
	C233.118347,74.699623 228.670532,77.235008 224.210663,77.771698 
	C215.033707,78.876030 205.699585,78.687202 196.428909,78.993713 
	C192.455093,79.125092 189.467926,80.208275 190.027557,85.072258 
z"/>
<path fill="#108F41" opacity="1.000000" stroke="none" 
	d="
M218.000000,137.000000 
	C215.209976,138.661896 212.544800,140.613037 209.588242,141.889069 
	C207.435944,142.818024 204.898956,142.855759 202.024521,143.384399 
	C209.035950,147.593002 215.461990,151.450226 221.475861,155.653687 
	C214.456696,155.676712 207.847809,155.056671 201.243118,155.098633 
	C190.869064,155.164551 180.496201,155.632431 170.125992,156.015533 
	C163.182297,156.272079 156.222809,156.459457 149.315292,157.136215 
	C146.992081,157.363831 143.945602,158.420898 142.777985,160.146500 
	C141.329071,162.287827 140.967682,165.564133 141.211975,168.252457 
	C141.307510,169.303864 144.322189,170.089996 146.381714,170.997864 
	C147.505188,171.003021 148.254272,171.007263 149.003372,171.011505 
	C146.452347,178.686554 139.400848,180.604065 132.730698,175.000015 
	C129.965683,172.676971 128.139038,171.441528 124.706779,173.942184 
	C122.414589,175.612167 119.121017,176.908646 116.376534,176.738998 
	C111.367653,176.429413 110.409981,179.345596 109.053246,182.989136 
	C105.211891,193.305252 103.393593,203.777390 106.061882,214.614456 
	C107.364014,219.902969 109.278633,225.040665 110.610260,230.569916 
	C108.915794,229.649094 107.187935,227.123383 106.197823,227.385391 
	C102.171143,228.451004 102.339973,225.193680 101.280914,223.310669 
	C100.342621,221.642410 99.752602,219.778275 99.006386,217.572052 
	C99.006340,215.428818 99.008751,213.714142 99.308311,211.960541 
	C99.922676,211.515091 100.239883,211.108582 100.557098,210.702087 
	C100.041840,210.468277 99.526588,210.234467 99.008682,209.544632 
	C99.336845,205.058914 99.667656,201.029205 100.263687,196.778717 
	C100.022148,195.371964 99.515396,194.185974 99.006073,192.599945 
	C99.005424,191.133072 99.007339,190.066223 99.378517,188.925629 
	C100.057785,187.911362 100.367790,186.970856 100.677795,186.030365 
	C99.520660,185.776672 98.363525,185.522980 97.206383,185.269287 
	C97.140587,180.813583 97.074791,176.357895 97.478073,171.341553 
	C97.914352,167.496185 97.881554,164.211456 97.848755,160.926743 
	C97.923035,159.946091 97.997307,158.965424 98.409302,157.591705 
	C98.747025,157.198624 99.105446,156.875488 99.248779,156.834564 
	C99.392120,156.793640 99.516647,156.432831 99.516647,156.432831 
	C99.516647,156.432831 99.173195,156.227783 99.110321,156.147552 
	C99.047455,156.067307 98.918060,155.909760 98.918060,155.909760 
	C99.114929,155.086273 99.311806,154.262787 100.092804,153.182785 
	C101.916786,151.681320 103.521049,150.637817 104.338379,149.159302 
	C110.427277,138.144730 120.604813,133.888748 132.253250,133.148590 
	C143.175934,132.454544 154.177963,133.056213 165.143463,132.937668 
	C166.767746,132.920120 168.383102,132.076492 170.002579,131.615051 
	C175.397263,131.498734 180.791946,131.382416 187.038773,131.283035 
	C191.262009,131.373718 194.633102,131.447464 198.028656,131.888641 
	C198.886887,132.840302 199.653198,133.776672 200.565414,133.951431 
	C206.358994,135.061295 212.184814,136.002914 218.000000,137.000000 
z"/>
<path fill="#0D8F40" opacity="1.000000" stroke="none" 
	d="
M218.388641,136.999542 
	C212.184814,136.002914 206.358994,135.061295 200.565414,133.951431 
	C199.653198,133.776672 198.886887,132.840302 198.495361,131.858948 
	C206.254532,131.399277 213.571457,131.336777 221.013947,131.420395 
	C221.447723,131.416824 221.755981,131.267120 222.326050,131.002060 
	C222.807358,130.577545 223.026840,130.268372 223.447662,129.765686 
	C223.531876,128.732056 223.414780,127.891960 223.161011,126.709854 
	C222.007645,125.854767 220.990952,125.341682 219.715027,124.590515 
	C217.654800,124.472137 215.853806,124.591843 213.594635,124.791260 
	C209.425797,124.798004 205.715134,124.725021 201.911270,124.328003 
	C200.210403,124.217453 198.602737,124.430962 196.625458,124.733810 
	C195.503159,124.904587 194.750519,124.986015 193.997864,125.067444 
	C189.793976,124.303772 185.590103,123.540085 181.003830,122.190674 
	C180.221802,121.450363 179.822174,121.295792 179.422531,121.141220 
	C178.994843,120.931839 178.567154,120.722466 177.959091,120.049843 
	C177.509949,119.396111 177.241196,119.205627 176.972427,119.015144 
	C176.630585,118.695679 176.288757,118.376213 175.854309,117.495026 
	C175.461441,116.639725 175.161194,116.346153 174.860931,116.052582 
	C174.860931,116.052582 174.949142,116.051086 174.957703,115.641083 
	C174.884155,109.987099 174.151749,104.644592 174.926544,99.530418 
	C175.541855,95.468925 174.851257,92.596008 171.976456,89.993080 
	C171.976456,89.993080 171.754593,89.747002 171.842896,89.190903 
	C171.428131,85.859032 171.039215,82.926270 166.983170,85.037354 
	C165.874115,84.842003 164.765060,84.646660 163.074707,83.971405 
	C156.726044,83.327660 150.957703,83.012978 145.191696,83.051346 
	C141.132141,83.078354 137.075760,83.585228 133.017960,83.877838 
	C116.515785,83.112267 100.039528,67.976631 97.900543,51.627022 
	C97.603897,49.359653 97.265732,47.097713 97.385864,44.335609 
	C99.229836,39.637024 102.196266,38.838821 106.414085,38.896732 
	C123.663071,39.133545 140.917648,38.962910 158.170166,38.942307 
	C167.912262,41.031357 174.564240,46.735088 178.127472,56.600029 
	C178.156403,57.467426 178.292130,57.712837 178.510651,57.912449 
	C178.671371,58.364758 178.832092,58.817066 178.973053,59.632618 
	C175.201065,58.042686 170.595261,56.882076 167.884109,53.962219 
	C163.061905,48.768761 157.062164,47.351902 150.864594,47.197838 
	C141.782852,46.972076 132.673996,47.898849 123.574715,48.288231 
	C119.800720,48.449726 115.943893,49.000690 112.267540,48.439339 
	C108.862045,47.919353 107.778809,49.134331 108.059433,51.982533 
	C108.615570,57.627052 112.275383,65.198677 118.909622,68.130135 
	C122.533615,69.731461 125.918015,71.990067 129.654907,73.192833 
	C134.772018,74.839844 140.071533,76.104599 145.387985,76.886665 
	C149.296600,77.461639 153.417282,77.438332 157.338104,76.905891 
	C164.791977,75.893677 170.122665,79.965599 175.237350,84.096207 
	C176.935699,85.467796 177.529404,88.685638 177.864349,91.162682 
	C178.471893,95.656082 178.492325,100.227859 178.784653,104.765182 
	C179.051727,108.910454 181.794342,111.155701 185.379745,111.886696 
	C193.283890,113.498184 201.277298,114.675392 209.240570,115.991753 
	C212.974411,116.608971 216.805008,116.824806 220.445511,117.779938 
	C226.023087,119.243271 230.018982,124.015663 229.716934,128.143814 
	C229.481110,131.366791 223.354446,136.326126 218.388641,136.999542 
z"/>
<path fill="#0D8E3F" opacity="1.000000" stroke="none" 
	d="
M156.008270,245.972488 
	C158.627716,244.649612 161.168076,242.405045 163.881058,242.172226 
	C172.954315,241.393631 182.088989,241.324585 191.200790,241.002747 
	C200.976685,240.657455 210.812622,240.880112 220.510956,239.828018 
	C228.317688,238.981140 235.969559,236.652496 243.668442,234.886749 
	C247.942993,233.906357 251.731384,229.281631 251.984085,224.800705 
	C252.375687,217.856613 252.909103,210.907196 252.919922,203.959320 
	C252.927948,198.804153 252.974670,193.908920 258.407654,190.418320 
	C256.619415,189.420425 255.459976,188.773438 254.042557,187.982483 
	C254.320160,187.266785 254.386398,186.261932 254.910583,185.870773 
	C261.795044,180.733368 261.868805,180.086319 256.061035,173.507370 
	C255.636826,173.026871 255.404739,172.376770 255.044006,171.462463 
	C259.561798,171.300232 261.476624,174.551498 263.072083,178.688812 
	C262.972809,179.620224 263.092010,179.903778 263.374298,180.118744 
	C263.433533,198.399460 263.691437,216.682709 263.460175,234.959747 
	C263.358948,242.960205 259.477539,246.456055 251.063034,246.581177 
	C235.438889,246.813522 219.809158,246.673157 204.181747,246.681305 
	C190.715302,246.688339 177.248871,246.686111 162.998337,246.463699 
	C160.145584,246.150436 158.076935,246.061462 156.008270,245.972488 
z"/>
<path fill="#A1855B" opacity="1.000000" stroke="none" 
	d="
M155.630310,246.024597 
	C158.076935,246.061462 160.145584,246.150436 162.520447,246.428345 
	C162.172958,247.913681 160.965637,249.204361 160.952087,250.507431 
	C160.829971,262.258514 160.917725,274.011810 160.942337,285.764435 
	C160.946442,287.725769 160.942917,289.687134 160.942917,293.171204 
	C157.652771,291.544769 155.209595,290.777344 153.308853,289.308136 
	C149.007156,285.983063 145.066208,283.681366 139.812286,287.917358 
	C136.960831,290.216339 133.267929,291.471710 129.837921,293.258606 
	C129.837921,290.176697 129.837921,287.568726 129.868668,284.093750 
	C129.865250,280.502991 129.831085,277.779205 129.848846,274.583038 
	C129.900772,265.133331 129.900772,256.156036 129.900772,247.365524 
	C126.551064,246.964554 123.841492,246.640213 121.557724,246.266861 
	C124.318382,246.133484 126.653244,246.049103 129.243607,246.008728 
	C129.670441,246.029953 129.841766,246.007156 130.258057,246.025818 
	C130.502991,246.067261 130.995087,245.998672 131.422241,246.049713 
	C133.567734,246.056976 135.286057,246.013199 137.468628,246.020050 
	C142.946014,246.033981 147.959167,245.997299 152.972336,245.960602 
	C153.732346,245.999298 154.492355,246.037994 155.630310,246.024597 
z"/>
<path fill="#119143" opacity="1.000000" stroke="none" 
	d="
M190.376389,84.999413 
	C189.467926,80.208275 192.455093,79.125092 196.428909,78.993713 
	C205.699585,78.687202 215.033707,78.876030 224.210663,77.771698 
	C228.670532,77.235008 233.118347,74.699623 237.056198,72.242912 
	C241.217484,69.646805 244.847061,66.159424 248.541153,62.872829 
	C249.997711,61.576935 251.221115,59.892864 252.168686,58.174858 
	C254.915070,53.195557 253.016647,49.896549 247.445908,50.027988 
	C237.752792,50.256691 228.065491,50.731335 218.372406,50.962906 
	C212.308167,51.107780 206.223206,50.753799 200.177322,51.118088 
	C197.717468,51.266304 195.314133,52.668301 192.927658,53.607956 
	C191.334000,54.235447 189.815445,55.053741 188.263290,55.786644 
	C187.842957,54.140781 187.422638,52.494919 187.284088,50.164646 
	C187.664627,48.465115 187.763382,47.449993 187.862122,46.434868 
	C187.862122,46.434868 187.933121,46.108589 188.445557,46.046337 
	C189.959305,44.947529 190.960602,43.910969 191.961899,42.874413 
	C192.169998,42.623947 192.378082,42.373482 193.127350,42.037682 
	C194.100891,41.602478 194.533264,41.252617 194.965622,40.902756 
	C194.965622,40.902752 194.971924,40.983345 195.369324,40.977123 
	C203.134888,40.317619 210.493134,39.336567 217.874329,39.113140 
	C223.949875,38.929230 230.053513,39.911060 236.143097,39.891064 
	C243.395752,39.867256 250.647522,39.342583 257.898010,38.999989 
	C260.885651,38.858826 262.085785,40.275524 262.018860,43.193317 
	C261.946655,46.339561 262.078186,49.490486 262.120819,52.639366 
	C262.120819,52.639366 262.260956,52.754055 261.909119,53.082703 
	C261.410034,54.458126 261.262726,55.504898 261.115417,56.551666 
	C258.804230,66.944672 251.403809,73.521919 243.109741,78.825600 
	C239.139465,81.364433 233.781525,81.733231 228.143616,83.054626 
	C216.950134,83.014252 206.664551,82.949738 196.380753,83.055717 
	C194.926926,83.070694 193.481674,83.916603 192.032455,84.377922 
	C191.596710,84.560806 191.160965,84.743683 190.376389,84.999413 
z"/>
<path fill="#11913B" opacity="1.000000" stroke="none" 
	d="
M129.796906,275.055420 
	C129.831085,277.779205 129.865250,280.502991 129.820999,283.676605 
	C122.665588,283.637878 115.588593,283.149261 108.226913,282.011353 
	C105.066063,277.087799 102.217903,272.793976 99.266159,268.572601 
	C98.999733,268.191559 98.065346,268.277557 97.441147,268.146698 
	C97.298851,267.610596 97.156555,267.074493 97.459076,266.170410 
	C99.288162,263.043335 100.525551,260.298553 97.145653,258.002625 
	C97.080566,256.930267 97.015480,255.857941 97.282608,254.372391 
	C97.861794,253.805008 98.108757,253.650833 98.355713,253.496674 
	C97.951416,253.331680 97.547112,253.166702 97.142807,253.001709 
	C97.081268,251.929459 97.019730,250.857239 97.432800,249.377396 
	C98.590126,247.940247 99.655258,246.956299 99.785858,245.860916 
	C99.846436,245.352844 98.088371,244.627945 97.154770,244.001343 
	C97.093460,241.952942 97.032158,239.904541 97.383812,237.368729 
	C97.590042,235.921799 97.383316,234.962296 97.176590,234.002777 
	C97.116043,232.929825 97.055489,231.856888 97.404945,230.331024 
	C97.609009,228.919617 97.403069,227.961121 97.197128,227.002625 
	C97.141052,223.648422 97.084976,220.294220 97.335266,216.663574 
	C98.097374,216.924957 98.553116,217.462784 99.008850,218.000610 
	C99.752602,219.778275 100.342621,221.642410 101.280914,223.310669 
	C102.339973,225.193680 102.171143,228.451004 106.197823,227.385391 
	C107.187935,227.123383 108.915794,229.649094 110.652092,230.946594 
	C112.423080,232.330612 113.846474,233.661255 115.677727,235.375351 
	C116.390594,237.505875 116.695602,239.252930 116.732391,241.224274 
	C117.040154,242.996124 117.616142,244.543716 118.067917,246.420135 
	C117.388916,247.097473 116.863480,247.508469 116.274872,247.784943 
	C109.588570,250.925308 106.011726,257.017731 107.222923,263.245361 
	C108.579659,270.221344 114.185715,274.748688 121.832939,274.985535 
	C124.485771,275.067688 127.142151,275.035431 129.796906,275.055420 
z"/>
<path fill="#0C9142" opacity="1.000000" stroke="none" 
	d="
M146.007324,170.996948 
	C144.322189,170.089996 141.307510,169.303864 141.211975,168.252457 
	C140.967682,165.564133 141.329071,162.287827 142.777985,160.146500 
	C143.945602,158.420898 146.992081,157.363831 149.315292,157.136215 
	C156.222809,156.459457 163.182297,156.272079 170.125992,156.015533 
	C180.496201,155.632431 190.869064,155.164551 201.243118,155.098633 
	C207.847809,155.056671 214.456696,155.676712 221.531860,155.999664 
	C229.313354,156.378326 236.439499,155.393143 242.384750,150.930832 
	C247.825775,146.847000 252.733185,142.052185 258.159363,137.323502 
	C258.658234,138.586380 259.286346,140.176483 260.063416,142.144989 
	C254.501373,153.955994 245.668320,161.212555 232.070236,162.693085 
	C230.718933,162.233475 230.071472,162.016739 229.423828,162.016281 
	C203.823425,161.998642 178.222961,161.986099 152.622681,162.045212 
	C151.407715,162.048035 150.194275,162.708679 148.980118,163.062973 
	C144.767944,163.300156 144.136612,165.563156 145.839081,169.639816 
	C146.047012,170.506973 146.027176,170.751968 146.007324,170.996948 
z"/>
<path fill="#0C933B" opacity="1.000000" stroke="none" 
	d="
M171.319061,279.995850 
	C171.250977,279.562012 171.182892,279.128143 171.385406,278.367432 
	C171.656021,278.040558 172.053452,278.005127 172.457748,277.950867 
	C176.555511,277.292267 180.248962,276.687897 184.398132,276.065887 
	C187.590256,276.062958 190.326706,276.077667 193.359497,276.372192 
	C201.434586,276.770630 209.213333,276.889252 217.067841,277.376892 
	C218.547089,279.693298 223.375351,278.472260 221.529160,282.994354 
	C207.594391,282.997101 194.126724,282.896790 180.662491,283.066772 
	C177.062637,283.112213 173.845505,282.825287 171.319061,279.995850 
z"/>
<path fill="#0B8F35" opacity="1.000000" stroke="none" 
	d="
M221.997559,282.992676 
	C223.375351,278.472260 218.547089,279.693298 217.537415,277.374054 
	C228.059860,277.001831 238.189484,277.069641 248.316208,276.929810 
	C249.885452,276.908142 251.441559,275.935852 253.003723,275.403137 
	C253.757950,275.339417 254.512177,275.275696 255.716003,275.628174 
	C257.975220,276.866272 259.784851,277.688202 261.594482,278.510132 
	C260.995789,279.486267 260.397125,280.462402 259.798462,281.438538 
	C257.342224,281.958191 254.892746,282.885254 252.428528,282.926239 
	C242.287308,283.094910 232.141617,282.994293 221.997559,282.992676 
z"/>
<path fill="#FBFCFB" opacity="1.000000" stroke="none" 
	d="
M202.004486,124.652039 
	C205.715134,124.725021 209.425797,124.798004 214.009888,124.879593 
	C216.580307,124.868332 218.277283,124.848457 219.974258,124.828598 
	C220.990952,125.341682 222.007645,125.854767 223.083191,127.068665 
	C223.176819,128.499390 223.211578,129.229294 223.246338,129.959213 
	C223.026840,130.268372 222.807358,130.577545 222.020828,130.956940 
	C221.265335,131.109543 221.076874,131.191910 220.888397,131.274277 
	C213.571457,131.336777 206.254532,131.399277 198.470886,131.491501 
	C194.633102,131.447464 191.262009,131.373718 187.445358,131.179993 
	C189.302444,129.300766 191.605087,127.541512 193.952789,125.424850 
	C194.750519,124.986015 195.503159,124.904587 197.036026,124.826691 
	C199.212326,124.770828 200.608398,124.711433 202.004486,124.652039 
z"/>
<path fill="#118240" opacity="1.000000" stroke="none" 
	d="
M262.415497,52.325581 
	C262.078186,49.490486 261.946655,46.339561 262.018860,43.193317 
	C262.085785,40.275524 260.885651,38.858826 257.898010,38.999989 
	C250.647522,39.342583 243.395752,39.867256 236.143097,39.891064 
	C230.053513,39.911060 223.949875,38.929230 217.874329,39.113140 
	C210.493134,39.336567 203.134888,40.317619 195.336288,40.953823 
	C197.480698,39.924213 200.045334,38.064651 202.631973,38.033516 
	C222.816391,37.790592 243.005051,37.899143 263.966614,37.899143 
	C263.545990,42.623852 263.128082,47.317825 262.415497,52.325581 
z"/>
<path fill="#138C40" opacity="1.000000" stroke="none" 
	d="
M169.550369,131.485901 
	C168.383102,132.076492 166.767746,132.920120 165.143463,132.937668 
	C154.177963,133.056213 143.175934,132.454544 132.253250,133.148590 
	C120.604813,133.888748 110.427277,138.144730 104.338379,149.159302 
	C103.521049,150.637817 101.916786,151.681320 100.324669,152.957306 
	C104.521477,139.821304 114.612762,133.091599 127.657829,131.962128 
	C141.385834,130.773529 155.277817,131.478912 169.550369,131.485901 
z"/>
<path fill="#0D8A33" opacity="1.000000" stroke="none" 
	d="
M221.529160,282.994354 
	C232.141617,282.994293 242.287308,283.094910 252.428528,282.926239 
	C254.892746,282.885254 257.342224,281.958191 259.798462,281.438538 
	C260.397125,280.462402 260.995789,279.486267 261.594482,278.510132 
	C259.784851,277.688202 257.975220,276.866272 256.080933,275.741058 
	C257.475616,275.459808 259.213074,275.003967 260.367737,275.627411 
	C261.744354,276.370697 263.561157,278.100098 263.483856,279.291809 
	C263.380524,280.884827 261.942230,282.845856 260.509888,283.758240 
	C259.304016,284.526428 257.287750,284.071960 255.630096,284.074005 
	C228.066772,284.108124 200.503448,284.128876 172.484161,283.726440 
	C171.778244,282.535217 171.528290,281.770233 171.278336,281.005219 
	C171.240036,280.835205 171.201736,280.665222 171.241241,280.245544 
	C173.845505,282.825287 177.062637,283.112213 180.662491,283.066772 
	C194.126724,282.896790 207.594391,282.997101 221.529160,282.994354 
z"/>
<path fill="#047C35" opacity="1.000000" stroke="none" 
	d="
M149.441345,163.162277 
	C150.194275,162.708679 151.407715,162.048035 152.622681,162.045212 
	C178.222961,161.986099 203.823425,161.998642 229.423828,162.016281 
	C230.071472,162.016739 230.718933,162.233475 231.673279,162.627869 
	C215.070374,163.017868 198.160767,163.151230 181.250900,163.232773 
	C170.801666,163.283157 160.352036,163.254669 149.441345,163.162277 
z"/>
<path fill="#0D8A33" opacity="1.000000" stroke="none" 
	d="
M146.381714,170.997864 
	C146.027176,170.751968 146.047012,170.506973 146.101410,169.894653 
	C171.114258,169.636124 196.092575,169.744919 221.532211,169.940414 
	C220.098129,170.351807 218.203537,170.953201 216.307159,170.958969 
	C194.184906,171.026367 172.062378,171.004105 149.471649,171.008530 
	C148.254272,171.007263 147.505188,171.003021 146.381714,170.997864 
z"/>
<path fill="#2F8E52" opacity="1.000000" stroke="none" 
	d="
M193.063141,276.092377 
	C190.326706,276.077667 187.590256,276.062958 183.960938,276.046387 
	C180.046585,275.750458 177.025146,275.456421 174.003693,275.162384 
	C198.691574,275.139679 223.379471,275.116943 248.186371,275.449768 
	C229.891296,275.901001 211.477219,275.996674 193.063141,276.092377 
z"/>
<path fill="#047C35" opacity="1.000000" stroke="none" 
	d="
M157.941605,38.557045 
	C140.917648,38.962910 123.663071,39.133545 106.414085,38.896732 
	C102.196266,38.838821 99.229836,39.637024 97.467041,43.912956 
	C97.014572,42.045181 96.920013,40.102406 96.798706,37.610001 
	C100.467163,37.610001 103.740685,37.613445 107.014191,37.609409 
	C121.776573,37.591194 136.539017,37.545666 151.301285,37.579292 
	C153.438980,37.584160 155.575806,37.964951 157.941605,38.557045 
z"/>
<path fill="#047C35" opacity="1.000000" stroke="none" 
	d="
M192.485413,84.494034 
	C193.481674,83.916603 194.926926,83.070694 196.380753,83.055717 
	C206.664551,82.949738 216.950134,83.014252 227.716461,83.043839 
	C225.892822,83.570320 223.595154,84.472450 221.281631,84.515213 
	C211.836517,84.689751 202.386551,84.601555 192.485413,84.494034 
z"/>
<path fill="#0D8A33" opacity="1.000000" stroke="none" 
	d="
M193.359497,276.372192 
	C211.477219,275.996674 229.891296,275.901001 248.639893,275.566956 
	C250.055222,275.282471 251.136032,275.236389 252.610291,275.296722 
	C251.441559,275.935852 249.885452,276.908142 248.316208,276.929810 
	C238.189484,277.069641 228.059860,277.001831 217.461639,277.005005 
	C209.213333,276.889252 201.434586,276.770630 193.359497,276.372192 
z"/>
<path fill="#118E3F" opacity="1.000000" stroke="none" 
	d="
M171.931549,90.460556 
	C174.851257,92.596008 175.541855,95.468925 174.926544,99.530418 
	C174.151749,104.644592 174.884155,109.987099 174.935547,115.679230 
	C173.978531,112.871414 172.567764,109.663597 172.238281,106.348320 
	C171.731323,101.246956 171.966400,96.071846 171.931549,90.460556 
z"/>
<path fill="#0D8A33" opacity="1.000000" stroke="none" 
	d="
M99.006393,217.572052 
	C98.553116,217.462784 98.097374,216.924957 97.431190,216.216949 
	C97.165932,209.851959 97.111122,203.657181 97.596619,197.159637 
	C98.757439,196.904419 99.377953,196.951950 99.998474,196.999496 
	C99.667656,201.029205 99.336845,205.058914 99.005585,209.877747 
	C99.007149,211.111084 99.009155,211.555283 99.011162,211.999481 
	C99.008751,213.714142 99.006340,215.428818 99.006393,217.572052 
z"/>
<path fill="#0D8A33" opacity="1.000000" stroke="none" 
	d="
M97.464767,268.541565 
	C98.065346,268.277557 98.999733,268.191559 99.266159,268.572601 
	C102.217903,272.793976 105.066063,277.087799 107.974945,281.712708 
	C102.131760,279.586517 98.868248,275.016235 97.464767,268.541565 
z"/>
<path fill="#047C35" opacity="1.000000" stroke="none" 
	d="
M133.473145,83.995613 
	C137.075760,83.585228 141.132141,83.078354 145.191696,83.051346 
	C150.957703,83.012978 156.726044,83.327660 162.775391,83.811615 
	C153.347702,84.125626 143.638031,84.119507 133.473145,83.995613 
z"/>
<path fill="#0D8A33" opacity="1.000000" stroke="none" 
	d="
M97.655136,161.243164 
	C97.881554,164.211456 97.914352,167.496185 97.576218,170.887848 
	C97.157234,169.918671 97.109184,168.842529 97.292068,167.284531 
	C97.716072,166.474106 97.634003,166.214417 97.276810,166.023605 
	C97.338379,164.535599 97.399940,163.047607 97.655136,161.243164 
z"/>
<path fill="#0D8A33" opacity="1.000000" stroke="none" 
	d="
M173.677368,275.088440 
	C177.025146,275.456421 180.046585,275.750458 183.505234,276.064026 
	C180.248962,276.687897 176.555511,277.292267 172.439636,277.601257 
	C172.025696,276.606415 172.034164,275.906921 172.042633,275.207428 
	C172.478775,275.143127 172.914917,275.078796 173.677368,275.088440 
z"/>
<path fill="#0D8A33" opacity="1.000000" stroke="none" 
	d="
M97.057877,258.439911 
	C100.525551,260.298553 99.288162,263.043335 97.538925,265.898560 
	C97.106003,263.622223 97.038048,261.249695 97.057877,258.439911 
z"/>
<path fill="#0D8A33" opacity="1.000000" stroke="none" 
	d="
M97.065735,244.411499 
	C98.088371,244.627945 99.846436,245.352844 99.785858,245.860916 
	C99.655258,246.956299 98.590126,247.940247 97.530228,248.984253 
	C97.094269,247.606369 97.035492,246.214005 97.065735,244.411499 
z"/>
<path fill="#118E3F" opacity="1.000000" stroke="none" 
	d="
M167.186218,85.292542 
	C171.039215,82.926270 171.428131,85.859032 171.896927,89.034302 
	C170.371536,88.138435 168.880402,86.843079 167.186218,85.292542 
z"/>
<path fill="#138C40" opacity="1.000000" stroke="none" 
	d="
M97.123947,185.650482 
	C98.363525,185.522980 99.520660,185.776672 100.677795,186.030365 
	C100.367790,186.970856 100.057785,187.911362 98.932129,188.949493 
	C97.820396,189.080475 97.524330,189.113800 97.228256,189.147141 
	C97.166008,188.108658 97.103767,187.070175 97.123947,185.650482 
z"/>
<path fill="#138C40" opacity="1.000000" stroke="none" 
	d="
M100.263687,196.778717 
	C99.377953,196.951950 98.757439,196.904419 97.683746,196.738098 
	C97.174736,196.271042 97.118889,195.922760 97.519638,195.226074 
	C98.320374,194.251755 98.664513,193.625885 99.008644,193.000000 
	C99.515396,194.185974 100.022148,195.371964 100.263687,196.778717 
z"/>
<path fill="#118240" opacity="1.000000" stroke="none" 
	d="
M187.568634,46.621758 
	C187.763382,47.449993 187.664627,48.465115 187.284729,49.744385 
	C186.454178,50.261642 185.904739,50.514755 185.056030,50.818207 
	C185.596222,49.515247 186.435699,48.161949 187.568634,46.621758 
z"/>
<path fill="#118240" opacity="1.000000" stroke="none" 
	d="
M191.657196,42.948532 
	C190.960602,43.910969 189.959305,44.947529 188.604889,45.996429 
	C189.285355,45.013401 190.318924,44.018028 191.657196,42.948532 
z"/>
<path fill="#0D8A33" opacity="1.000000" stroke="none" 
	d="
M99.006073,192.599945 
	C98.664513,193.625885 98.320374,194.251755 97.608711,194.973312 
	C97.182541,193.370789 97.123894,191.672577 97.146759,189.560760 
	C97.524330,189.113800 97.820396,189.080475 98.562866,189.023254 
	C99.007339,190.066223 99.005424,191.133072 99.006073,192.599945 
z"/>
<path fill="#0D8A33" opacity="1.000000" stroke="none" 
	d="
M97.108467,227.371643 
	C97.403069,227.961121 97.609009,228.919617 97.502045,229.937592 
	C97.132690,229.244934 97.076248,228.492798 97.108467,227.371643 
z"/>
<path fill="#0D8A33" opacity="1.000000" stroke="none" 
	d="
M97.086655,234.371567 
	C97.383316,234.962296 97.590042,235.921799 97.481171,236.939117 
	C97.109291,236.244720 97.053001,235.492538 97.086655,234.371567 
z"/>
<path fill="#0D8E3F" opacity="1.000000" stroke="none" 
	d="
M247.969589,170.488724 
	C247.424301,170.741257 246.752136,170.698990 246.041199,170.355865 
	C246.615845,170.101303 247.229279,170.147629 247.969589,170.488724 
z"/>
<path fill="#118240" opacity="1.000000" stroke="none" 
	d="
M261.396637,56.274521 
	C261.262726,55.504898 261.410034,54.458126 261.876953,53.167343 
	C262.023712,53.948013 261.850800,54.972694 261.396637,56.274521 
z"/>
<path fill="#2F8E52" opacity="1.000000" stroke="none" 
	d="
M171.702271,275.270996 
	C172.034164,275.906921 172.025696,276.606415 172.035339,277.655518 
	C172.053452,278.005127 171.656021,278.040558 171.456528,278.042267 
	C171.291977,277.140839 171.326935,276.237732 171.702271,275.270996 
z"/>
<path fill="#2F8E52" opacity="1.000000" stroke="none" 
	d="
M171.176544,281.344788 
	C171.528290,281.770233 171.778244,282.535217 172.028320,283.617249 
	C171.710541,283.184326 171.392654,282.434357 171.176544,281.344788 
z"/>
<path fill="#118240" opacity="1.000000" stroke="none" 
	d="
M194.674683,40.923409 
	C194.533264,41.252617 194.100891,41.602478 193.375214,41.989811 
	C193.515839,41.666210 193.949783,41.305138 194.674683,40.923409 
z"/>
<path fill="#0D8A33" opacity="1.000000" stroke="none" 
	d="
M97.068024,253.250793 
	C97.547112,253.166702 97.951416,253.331680 98.355713,253.496674 
	C98.108757,253.650833 97.861794,253.805008 97.378365,253.978729 
	C97.092354,253.832138 97.042793,253.666000 97.068024,253.250793 
z"/>
<path fill="#118E3F" opacity="1.000000" stroke="none" 
	d="
M179.598709,121.412292 
	C179.822174,121.295792 180.221802,121.450363 180.784134,121.889046 
	C180.556183,122.009895 180.165527,121.846634 179.598709,121.412292 
z"/>
<path fill="#138C40" opacity="1.000000" stroke="none" 
	d="
M98.543060,157.327545 
	C98.416245,157.035553 98.493401,156.614655 98.744308,156.051758 
	C98.918060,155.909760 99.047455,156.067307 99.073891,156.306641 
	C99.100327,156.545975 99.105446,156.875488 99.105446,156.875488 
	C99.105446,156.875488 98.747025,157.198624 98.543060,157.327545 
z"/>
<path fill="#118240" opacity="1.000000" stroke="none" 
	d="
M184.605927,50.882202 
	C184.723175,51.083580 184.589844,51.404392 184.231567,51.867363 
	C184.122864,51.673561 184.239105,51.337601 184.605927,50.882202 
z"/>
<path fill="#118240" opacity="1.000000" stroke="none" 
	d="
M183.616333,52.602657 
	C183.748047,52.814190 183.613998,53.216591 183.226044,53.816315 
	C183.098267,53.606934 183.224426,53.200230 183.616333,52.602657 
z"/>
<path fill="#138C40" opacity="1.000000" stroke="none" 
	d="
M97.188004,166.259064 
	C97.634003,166.214417 97.716072,166.474106 97.384247,166.889374 
	C97.196716,166.815567 97.147964,166.655045 97.188004,166.259064 
z"/>
<path fill="#118240" opacity="1.000000" stroke="none" 
	d="
M181.644196,56.648197 
	C181.777451,56.834309 181.673630,57.207844 181.353027,57.778587 
	C181.226562,57.595741 181.316849,57.215683 181.644196,56.648197 
z"/>
<path fill="#74B48E" opacity="1.000000" stroke="none" 
	d="
M263.509766,179.905426 
	C263.092010,179.903778 262.972809,179.620224 263.110596,179.046997 
	C263.351379,179.114639 263.498291,179.403366 263.509766,179.905426 
z"/>
<path fill="#118240" opacity="1.000000" stroke="none" 
	d="
M182.606598,54.570969 
	C182.748810,54.780216 182.629532,55.185764 182.264618,55.796860 
	C182.127701,55.590691 182.236389,55.178978 182.606598,54.570969 
z"/>
<path fill="#118E3F" opacity="1.000000" stroke="none" 
	d="
M178.553040,57.690105 
	C178.292130,57.712837 178.156403,57.467426 178.094208,56.962402 
	C178.369308,56.907272 178.539474,57.146992 178.553040,57.690105 
z"/>
<path fill="#118E3F" opacity="1.000000" stroke="none" 
	d="
M177.035461,119.272003 
	C177.241196,119.205627 177.509949,119.396111 177.879578,119.816650 
	C177.686447,119.874092 177.392456,119.701469 177.035461,119.272003 
z"/>
<path fill="#118E3F" opacity="1.000000" stroke="none" 
	d="
M174.915802,116.369843 
	C175.161194,116.346153 175.461441,116.639725 175.810944,117.255196 
	C175.563675,117.280426 175.267181,116.983757 174.915802,116.369843 
z"/>
<path fill="#108F41" opacity="1.000000" stroke="none" 
	d="
M117.000610,241.000000 
	C116.695602,239.252930 116.390594,237.505875 116.043098,235.379395 
	C122.959351,238.094177 129.918091,241.188370 136.939209,244.883179 
	C137.001587,245.483826 137.004395,245.969421 137.004395,245.969421 
	C135.286057,246.013199 133.567734,246.056976 131.336639,245.883484 
	C130.553619,245.772278 130.283371,245.878311 130.013107,245.984360 
	C129.841766,246.007156 129.670441,246.029953 129.201645,245.643021 
	C124.936317,243.822205 120.968460,242.411102 117.000610,241.000000 
z"/>
<path fill="#0D8E3F" opacity="1.000000" stroke="none" 
	d="
M137.468628,246.020050 
	C137.004395,245.969421 137.001587,245.483826 137.002014,245.240997 
	C142.129791,245.125961 147.257141,245.253754 152.678406,245.671082 
	C147.959167,245.997299 142.946014,246.033981 137.468628,246.020050 
z"/>
<path fill="#138C40" opacity="1.000000" stroke="none" 
	d="
M99.308311,211.960541 
	C99.009155,211.555283 99.007149,211.111084 99.008240,210.333771 
	C99.526588,210.234467 100.041840,210.468277 100.557098,210.702087 
	C100.239883,211.108582 99.922676,211.515091 99.308311,211.960541 
z"/>
<path fill="#0D8A33" opacity="1.000000" stroke="none" 
	d="
M99.248779,156.834564 
	C99.105446,156.875488 99.100327,156.545975 99.136765,156.386871 
	C99.173195,156.227783 99.516647,156.432831 99.516647,156.432831 
	C99.516647,156.432831 99.392120,156.793640 99.248779,156.834564 
z"/>
<path fill="#118E3F" opacity="1.000000" stroke="none" 
	d="
M201.911270,124.327995 
	C200.608398,124.711433 199.212326,124.770828 197.405670,124.737343 
	C198.602737,124.430962 200.210403,124.217453 201.911270,124.327995 
z"/>
<path fill="#118E3F" opacity="1.000000" stroke="none" 
	d="
M219.715027,124.590515 
	C218.277283,124.848457 216.580307,124.868332 214.468079,124.799866 
	C215.853806,124.591843 217.654800,124.472137 219.715027,124.590515 
z"/>
<path fill="#118E3F" opacity="1.000000" stroke="none" 
	d="
M223.447662,129.765686 
	C223.211578,129.229294 223.176819,128.499390 223.219864,127.410667 
	C223.414780,127.891960 223.531876,128.732056 223.447662,129.765686 
z"/>
<path fill="#74B48E" opacity="1.000000" stroke="none" 
	d="
M221.013947,131.420395 
	C221.076874,131.191910 221.265335,131.109543 221.759003,131.072296 
	C221.755981,131.267120 221.447723,131.416824 221.013947,131.420395 
z"/>
<path fill="#FBFCFB" opacity="1.000000" stroke="none" 
	d="
M129.848846,274.583008 
	C127.142151,275.035431 124.485771,275.067688 121.832939,274.985535 
	C114.185715,274.748688 108.579659,270.221344 107.222923,263.245361 
	C106.011726,257.017731 109.588570,250.925308 116.274872,247.784943 
	C116.863480,247.508469 117.388916,247.097473 118.438934,246.408569 
	C119.666763,246.150742 120.399345,246.233307 121.131927,246.315857 
	C123.841492,246.640213 126.551064,246.964554 129.900772,247.365524 
	C129.900772,256.156036 129.900772,265.133331 129.848846,274.583008 
z"/>
<path fill="#0D8E3F" opacity="1.000000" stroke="none" 
	d="
M121.557724,246.266846 
	C120.399345,246.233307 119.666763,246.150742 118.563156,246.079742 
	C117.616142,244.543716 117.040154,242.996124 116.732391,241.224274 
	C120.968460,242.411102 124.936317,243.822205 128.946136,245.598999 
	C126.653244,246.049103 124.318382,246.133484 121.557724,246.266846 
z"/>
<path fill="#0D8E3F" opacity="1.000000" stroke="none" 
	d="
M130.258057,246.025818 
	C130.283371,245.878311 130.553619,245.772278 130.909485,245.832458 
	C130.995087,245.998672 130.502991,246.067261 130.258057,246.025818 
z"/>
</svg>